<svg xmlns="http://www.w3.org/2000/svg" viewBox="0 0 122.07 131.88"><title>asset</title><g id="Layer_1" data-name="Layer 1"><path d="M52.35,52.36c-1.48,4.48-3.23,12.38-4.7,16.84-1.13,3.43-2.22,6.88-3.41,10.29-.35,1-.14,1.21.86,1.18,2.33-.06,4.67-.08,7,0A1.86,1.86,0,0,0,54,79.57C58.53,72,63.4,61,67.92,53.35a2,2,0,0,1,2-1.16c4.77.05,9.53,0,14.3,0A5.81,5.81,0,0,0,90,48.5a6,6,0,0,0-1.52-6.67,5.31,5.31,0,0,0-3.88-1.52c-4.67,0-9.34-.06-14,0a2.66,2.66,0,0,1-2.67-1.54C62.54,29.92,57.11,21.07,51.74,12.2a1.85,1.85,0,0,0-1.9-1.09c-2,.09-3.91.08-5.86,0-1,0-1.18.2-.85,1.18C46.08,21.14,49,30,51.87,38.85c.15.44.28.89.45,1.46-3.86,0-7.62,0-11.37,0-4.57-.07-9.13.11-13.71-.29A29,29,0,0,1,1.74,17.29a29.39,29.39,0,0,1,1.06-16A1.53,1.53,0,0,1,4.49,0C24.33,0,44.16,0,64,0,73.72.06,83.3,1.19,92.4,4.85c11.21,4.5,20.13,11.68,25.58,22.68A42.16,42.16,0,0,1,122,47.91a46.89,46.89,0,0,1-2.79,15.38A37.2,37.2,0,0,1,96,86.08a81.79,81.79,0,0,1-23.23,4.27c-10.67.58-21.35.17-32,.23-1.28,0-1.54.34-1.54,1.57.06,12.68,0,25.36.1,38,0,1.18-.28,1.46-1.47,1.5-12.1.37-24.21,0-36.31.19-1.15,0-1.51-.21-1.5-1.45.05-12.54,0-25.08,0-37.61,0-6.35,0-12.69,0-19a6.5,6.5,0,0,1,.43-2.51c4.42-10.93,12.48-17.2,24.12-18.91l.29,0,27-.1A2.67,2.67,0,0,1,52.35,52.36Z" style="fill:#0060c2"/></g></svg>